<svg width="1042" height="1349" viewBox="0 0 1042 1349" fill="none" xmlns="http://www.w3.org/2000/svg">
<path d="M427 80L405.5 56L400.5 28.5L405.5 2L390 14L377.5 20L359.5 33.5L340 47.5L311 60L250 80L190.5 86.5L144.5 108L117.5 146L94.5 182L78.5 222.5L54.5 312.5L25 408.5L1 506.5L105 536L155.5 553L194.5 562.5L206.5 548.5L203 742.5L207 935L194.5 1063.5L137 1269L230.5 1323.5L373.5 1343.5L531 1348L681 1343.5L807.5 1333L854 1327.5L893.5 1312.5L935 1268.5L932.5 1239.5L918.5 1202.5L897.5 1099.5L870.5 936.5L824.5 582.5L843.5 600.5L880 605L917 600.5L949 588.5L1001 571.5L1040.5 547.5L997.5 349L974.5 259.5L949 177L915 142.5L874.5 115L830.5 99.5L811 94L791.5 84L749 60L725 41L691.5 19L696 36.5L686.5 60L660 90.5L618.5 115L584 128H529L473 108L427 80Z" fill="#001AFF" fill-opacity="0.7" stroke="black"/>
<path d="M709.5 320.5L718.5 293.5L724 294.5L725 301.5L728 294.5L733.5 297L724 322.5L720 321.5L718.5 310.5L715 321.5L709.5 320.5Z" fill="white"/>
<path d="M726 322.5L735.5 297H741.5L732 322.5H726Z" fill="white"/>
<path d="M734 323.5L743 298H748.4L746.5 304.5L751.5 299L757 300L755 306L749.5 310V320.5L747.878 324.855L748.4 325L757.5 300.5L771 303.5L768.5 308H762L760.5 311.5H766.5L765.5 316.5H758L757 321.5L764.5 322.5L763.5 325L777 322.5L783.5 320.5H787L790.5 322.5L773.5 328.5L755 333L718.5 342.5H708L701 340L697 335L696 327.5L697 322.5L699.5 317L702.5 313L707 308L711 309.5L708 316V320.5L709.5 322.5L711.5 326L717 327.5H735.5L752 326L748.4 325L747.878 324.855L743 323.5V316L739.5 323.5H734Z" fill="white"/>
<path d="M748.4 325L752 326L735.5 327.5H717L711.5 326L709.5 322.5L708 320.5V316L711 309.5L707 308L702.5 313L699.5 317L697 322.5L696 327.5L697 335L701 340L708 342.5H718.5L755 333L773.5 328.5L790.5 322.5L787 320.5H783.5L777 322.5L763.5 325L764.5 322.5L757 321.5L758 316.5H765.5L766.5 311.5H760.5L762 308H768.5L771 303.5L757.5 300.5L748.4 325ZM748.4 325L747.878 324.855M747.878 324.855L743 323.5V316L739.5 323.5H734L743 298H748.4L746.5 304.5L751.5 299L757 300L755 306L749.5 310V320.5L747.878 324.855ZM718.5 293.5L709.5 320.5L715 321.5L718.5 310.5L720 321.5L724 322.5L733.5 297L728 294.5L725 301.5L724 294.5L718.5 293.5ZM735.5 297L726 322.5H732L741.5 297H735.5Z" stroke="white"/>
</svg>
